{"title":"Beauty.and.the.Geek.AU.S04E02.WEB-DL.AAC.H264-JunKee","uid":7729646,"size":329766790,"categoryP":"video","categoryS":"tv_shows","magnet":"?xt=urn:btih:59d603fd2679c18180c3996d537dc9a8d4444ed5&amp;dn=Beauty.and.the.Geek.AU.S04E02.WEB-DL.AAC.H264-JunKee&amp;tr=udp%3A%2F%2Ftracker.openbittorrent.com%3A80&amp;tr=udp%3A%2F%2Fopen.demonii.com%3A1337&amp;tr=udp%3A%2F%2Ftracker.coppersurfer.tk%3A6969&amp;tr=udp%3A%2F%2Fexodus.desync.com%3A6969","seeders":0,"leechers":0,"uploader":"Junkee41","files":-1,"time":1350307456,"description":"Beauty.and.the.Geek.AU.S04E02.WEB-DL.AAC.H264-JunKee\n\n\nDate Aired: 11-10-2012\n\nTVDB Link: http://thetvdb.com/?tab=series&amp;id=118001\n\n\nGeneral\nFormat                                   : MPEG-4\nFile size                                : 314 MB\nDuration                                 : 46mn 3s\nOverall bit rate                         : 955 Kbps\n\nVideo\nBit rate                                 : 790 Kbps\nWidth                                    : 624 pixels\nHeight                                   : 360 pixels\nDisplay aspect ratio                     : 1.733\nFrame rate                               : 25.000 fps\nStream size                              : 260 MiB (83%)\n\nAudio\nFormat                                   : AAC\nBit rate                                 : 160 Kbps\nChannel(s)                               : 2 channels\nStream size                              : 52.7 MiB (17%)","torrent":{"xt":"urn:btih:59d603fd2679c18180c3996d537dc9a8d4444ed5","amp;dn":"Beauty.and.the.Geek.AU.S04E02.WEB-DL.AAC.H264-JunKee","amp;tr":["udp%3A%2F%2Ftracker.openbittorrent.com%3A80","udp%3A%2F%2Fopen.demonii.com%3A1337","udp%3A%2F%2Ftracker.coppersurfer.tk%3A6969","udp%3A%2F%2Fexodus.desync.com%3A6969"],"infoHash":"59d603fd2679c18180c3996d537dc9a8d4444ed5","infoHashBuffer":{"type":"Buffer","data":[89,214,3,253,38,121,193,129,128,195,153,109,83,125,201,168,212,68,78,213]},"announce":[],"urlList":[]}}